<?xml version="1.0" encoding="UTF-8" standalone="no"?><svg xmlns="http://www.w3.org/2000/svg" xmlns:xlink="http://www.w3.org/1999/xlink" contentStyleType="text/css" height="770.8333px" preserveAspectRatio="none" style="width:890px;height:770px;background:#00000000;" version="1.1" viewBox="0 0 890 770" width="890.625px" zoomAndPan="magnify"><defs/><g><polygon fill="none" points="337.7604,10.4167,337.7604,10.6356,348.1771,9.9851,358.5938,10.618,369.0104,10.833,379.4271,9.6735,389.8438,10.3357,400.2604,9.9724,410.6771,10.0172,421.0938,10.3457,431.5104,9.6965,441.9271,10.9934,452.3438,9.7601,462.7604,10.2107,473.1771,10.8666,483.5938,10.3273,494.0104,10.4877,504.4271,10.3834,514.8438,10.6026,525.2604,10.6658,535.6771,11.0268,546.0938,11.1157,556.5104,11.1242,566.9271,10.6819,577.3438,10.4167,577.4053,10.5654,578.0263,10.886,578.4264,10.6735,579.2017,11.3666,579.6614,11.2979,580.29,11.6371,580.4613,11.708,580.3753,12.1605,580.7562,12.8065,581.2602,13.5034,581.2507,13.9876,581.5104,14.5833,581.547,14.5833,581.628,21.9336,581.6549,29.2839,581.5091,36.6341,581.6101,43.9844,581.5104,51.3346,581.3268,51.2586,581.3576,51.9617,581.1981,52.586,580.9208,53.1615,580.7308,53.7731,580.29,54.2809,580.2258,54.1259,579.6141,54.3158,579.0289,54.5697,578.5144,54.9943,577.9069,55.1942,577.3438,55.5013,577.3438,56.2111,566.9271,55.3193,556.5104,55.144,546.0938,55.7391,535.6771,54.8067,525.2604,54.9605,514.8438,56.1773,504.4271,55.9551,494.0104,56.2664,483.5938,55.1661,473.1771,55.8338,462.7604,56.1163,452.3438,55.0092,441.9271,55.4014,431.5104,55.6325,421.0938,56.1802,410.6771,55.4969,400.2604,55.9831,389.8438,54.9244,379.4271,54.7958,369.0104,56.0259,358.5938,54.7545,348.1771,56.0315,337.7604,55.5013,337.7879,55.5676,337.1356,55.1713,336.5349,54.8997,336.0536,54.9162,335.3636,54.429,334.8141,54.2809,335.004,54.3596,334.3927,53.6182,334.524,53.1844,334.2373,52.5775,333.9164,51.9564,333.5938,51.3346,333.6101,51.3346,333.846,43.9844,333.8068,36.6341,333.6525,29.2839,333.6869,21.9336,333.5938,14.5833,333.552,14.566,334.0677,14.0893,334.1316,13.4254,334.3813,12.8385,334.3749,12.1455,334.8141,11.6371,334.7603,11.5071,335.4739,11.5632,336.0498,11.2868,336.5762,10.891,337.1284,10.5574,337.7604,10.4167" style="stroke:#4D4D4D;stroke-width:1.0416666666666667;"/><text fill="#2E2E2E" font-family="&quot;Segoe Print&quot;" font-size="20.8333" font-weight="bold" lengthAdjust="spacing" textLength="227.0833" x="344.0104" y="40.1713">Vitrina at-a-glance</text><polygon fill="#4D4D4D" points="505.7292,269.9544,505.7292,270.0274,507.8125,269.8106,509.8958,270.0215,511.9792,270.0932,514.0625,269.7067,516.1458,269.9544,516.0649,269.9544,515.7016,280.3625,515.7464,290.7706,516.0748,301.1787,515.4257,311.5868,516.7225,321.9949,515.4893,332.403,515.9398,342.8111,516.5958,353.2192,516.0565,363.6273,516.2169,374.0354,516.1126,384.4435,516.3318,394.8516,516.3949,405.2597,516.7559,415.6678,516.8448,426.0759,516.8534,436.484,516.4111,446.8921,516.6287,457.3002,516.1458,467.7083,516.1458,467.9522,514.0625,467.4579,511.9792,467.9439,509.8958,467.6054,507.8125,467.8937,505.7292,467.7083,505.2135,467.7083,505.6578,457.3002,506.5017,446.8921,505.6784,436.484,505.8389,426.0759,506.0819,415.6678,506.1627,405.2597,505.7251,394.8516,506.0283,384.4435,505.1329,374.0354,506.0254,363.6273,506.3002,353.2192,506.1922,342.8111,506.3677,332.403,505.226,321.9949,505.0498,311.5868,505.0819,301.1787,505.6678,290.7706,505.5244,280.3625,505.7292,269.9544" style="stroke:#555555;stroke-width:1.0416666666666667;"/><polygon fill="#4D4D4D" points="656.7708,541.6016,656.7708,541.6745,658.8542,541.4577,660.9375,541.6687,663.0208,541.7403,665.1042,541.3539,667.1875,541.6016,667.1065,541.6016,666.7432,552.3881,666.788,563.1747,667.1165,573.9613,666.4673,584.7479,667.7642,595.5344,666.531,606.321,666.9815,617.1076,667.6374,627.8942,667.0981,638.6808,667.2586,649.4673,667.1875,660.2539,667.1875,660.2428,665.1042,660.3159,663.0208,660.3369,660.9375,660.4573,658.8542,660.4869,656.7708,660.2539,657.4784,660.2539,657.0361,649.4673,657.2537,638.6808,657.5023,627.8942,656.0196,617.1076,657.4776,606.321,656.462,595.5344,657.3269,584.7479,656.2552,573.9613,656.6995,563.1747,657.5433,552.3881,656.7708,541.6016" style="stroke:#555555;stroke-width:1.0416666666666667;"/><path d="M46.875,149.2188 L47.1669,149.2188 L46.2996,159.6067 L47.1435,169.9946 L47.4301,180.3826 L45.8842,190.7705 L46.7671,201.1585 L46.2826,211.5464 L46.3424,221.9344 L46.7803,232.3223 L45.9148,242.7102 L47.6439,253.0982 L45.9996,263.4861 L46.6003,273.8741 L47.4749,284.262 L46.7559,294.65 L46.9698,305.0379 L46.8306,315.4259 L47.123,325.8138 L47.2071,336.2017 L47.6885,346.5897 L47.807,356.9776 L47.8184,367.3656 L47.2286,377.7535 L47.5189,388.1415 L47.8503,398.5294 L45.8734,408.9174 L47.8174,419.3053 L46.4632,429.6932 L47.6164,440.0812 L46.1875,450.4691 L46.7799,460.8571 L47.905,471.245 L46.8073,481.633 L47.0213,492.0209 L47.3453,502.4089 L47.4531,512.7968 L46.8696,523.1847 L47.2739,533.5727 L46.08,543.9606 L47.27,554.3486 L47.6364,564.7365 L47.4924,575.1245 L47.7264,585.5124 L46.2041,595.9004 L45.9692,606.2883 L46.0119,616.6762 L46.7932,627.0642 L46.602,637.4521 L47.8214,647.8401 L46.6324,658.228 L46.3985,668.616 L46.875,679.0039 " fill="none" style="stroke:#555555;stroke-width:0.5208333333333334;stroke-dasharray:5.0,5.0;"/><path d="M188.0208,149.2188 L188.3128,149.2188 L187.4454,159.6067 L188.2893,169.9946 L188.5759,180.3826 L187.03,190.7705 L187.9129,201.1585 L187.4285,211.5464 L187.4882,221.9344 L187.9262,232.3223 L187.0606,242.7102 L188.7898,253.0982 L187.1454,263.4861 L187.7462,273.8741 L188.6208,284.262 L187.9017,294.65 L188.1156,305.0379 L187.9765,315.4259 L188.2688,325.8138 L188.353,336.2017 L188.8343,346.5897 L188.9529,356.9776 L188.9642,367.3656 L188.3745,377.7535 L188.6647,388.1415 L188.9962,398.5294 L187.0192,408.9174 L188.9632,419.3053 L187.609,429.6932 L188.7622,440.0812 L187.3333,450.4691 L187.9257,460.8571 L189.0508,471.245 L187.9531,481.633 L188.1671,492.0209 L188.4911,502.4089 L188.5989,512.7968 L188.0154,523.1847 L188.4197,533.5727 L187.2258,543.9606 L188.4158,554.3486 L188.7822,564.7365 L188.6382,575.1245 L188.8723,585.5124 L187.3499,595.9004 L187.115,606.2883 L187.1578,616.6762 L187.9391,627.0642 L187.7479,637.4521 L188.9672,647.8401 L187.7782,658.228 L187.5444,668.616 L188.0208,679.0039 " fill="none" style="stroke:#555555;stroke-width:0.5208333333333334;stroke-dasharray:5.0,5.0;"/><path d="M357.8125,149.2188 L358.1044,149.2188 L357.2371,159.6067 L358.081,169.9946 L358.3676,180.3826 L356.8217,190.7705 L357.7046,201.1585 L357.2201,211.5464 L357.2799,221.9344 L357.7178,232.3223 L356.8523,242.7102 L358.5814,253.0982 L356.9371,263.4861 L357.5378,273.8741 L358.4124,284.262 L357.6934,294.65 L357.9073,305.0379 L357.7681,315.4259 L358.0605,325.8138 L358.1446,336.2017 L358.626,346.5897 L358.7445,356.9776 L358.7559,367.3656 L358.1661,377.7535 L358.4564,388.1415 L358.7878,398.5294 L356.8109,408.9174 L358.7549,419.3053 L357.4007,429.6932 L358.5539,440.0812 L357.125,450.4691 L357.7174,460.8571 L358.8425,471.245 L357.7448,481.633 L357.9588,492.0209 L358.2828,502.4089 L358.3906,512.7968 L357.8071,523.1847 L358.2114,533.5727 L357.0175,543.9606 L358.2075,554.3486 L358.5739,564.7365 L358.4299,575.1245 L358.6639,585.5124 L357.1416,595.9004 L356.9067,606.2883 L356.9494,616.6762 L357.7307,627.0642 L357.5395,637.4521 L358.7589,647.8401 L357.5699,658.228 L357.336,668.616 L357.8125,679.0039 " fill="none" style="stroke:#555555;stroke-width:0.5208333333333334;stroke-dasharray:5.0,5.0;"/><path d="M510.9375,149.2188 L511.2294,149.2188 L510.3621,159.6067 L511.206,169.9946 L511.4926,180.3826 L509.9467,190.7705 L510.8296,201.1585 L510.3451,211.5464 L510.4049,221.9344 L510.8428,232.3223 L509.9773,242.7102 L511.7064,253.0982 L510.0621,263.4861 L510.6628,273.8741 L511.5374,284.262 L510.8184,294.65 L511.0323,305.0379 L510.8931,315.4259 L511.1855,325.8138 L511.2696,336.2017 L511.751,346.5897 L511.8695,356.9776 L511.8809,367.3656 L511.2911,377.7535 L511.5814,388.1415 L511.9128,398.5294 L509.9359,408.9174 L511.8799,419.3053 L510.5257,429.6932 L511.6789,440.0812 L510.25,450.4691 L510.8424,460.8571 L511.9675,471.245 L510.8698,481.633 L511.0838,492.0209 L511.4078,502.4089 L511.5156,512.7968 L510.9321,523.1847 L511.3364,533.5727 L510.1425,543.9606 L511.3325,554.3486 L511.6989,564.7365 L511.5549,575.1245 L511.7889,585.5124 L510.2666,595.9004 L510.0317,606.2883 L510.0744,616.6762 L510.8557,627.0642 L510.6645,637.4521 L511.8839,647.8401 L510.6949,658.228 L510.461,668.616 L510.9375,679.0039 " fill="none" style="stroke:#555555;stroke-width:0.5208333333333334;stroke-dasharray:5.0,5.0;"/><path d="M661.4583,149.2188 L661.7503,149.2188 L660.8829,159.6067 L661.7268,169.9946 L662.0134,180.3826 L660.4675,190.7705 L661.3504,201.1585 L660.866,211.5464 L660.9257,221.9344 L661.3637,232.3223 L660.4981,242.7102 L662.2273,253.0982 L660.5829,263.4861 L661.1837,273.8741 L662.0583,284.262 L661.3392,294.65 L661.5531,305.0379 L661.414,315.4259 L661.7063,325.8138 L661.7905,336.2017 L662.2718,346.5897 L662.3904,356.9776 L662.4017,367.3656 L661.812,377.7535 L662.1022,388.1415 L662.4337,398.5294 L660.4567,408.9174 L662.4007,419.3053 L661.0465,429.6932 L662.1997,440.0812 L660.7708,450.4691 L661.3632,460.8571 L662.4883,471.245 L661.3906,481.633 L661.6046,492.0209 L661.9286,502.4089 L662.0364,512.7968 L661.4529,523.1847 L661.8572,533.5727 L660.6633,543.9606 L661.8533,554.3486 L662.2197,564.7365 L662.0757,575.1245 L662.3098,585.5124 L660.7874,595.9004 L660.5525,606.2883 L660.5953,616.6762 L661.3766,627.0642 L661.1854,637.4521 L662.4047,647.8401 L661.2157,658.228 L660.9819,668.616 L661.4583,679.0039 " fill="none" style="stroke:#555555;stroke-width:0.5208333333333334;stroke-dasharray:5.0,5.0;"/><path d="M857.8125,149.2188 L858.1044,149.2188 L857.2371,159.6067 L858.081,169.9946 L858.3676,180.3826 L856.8217,190.7705 L857.7046,201.1585 L857.2201,211.5464 L857.2799,221.9344 L857.7178,232.3223 L856.8523,242.7102 L858.5814,253.0982 L856.9371,263.4861 L857.5378,273.8741 L858.4124,284.262 L857.6934,294.65 L857.9073,305.0379 L857.7681,315.4259 L858.0605,325.8138 L858.1446,336.2017 L858.626,346.5897 L858.7445,356.9776 L858.7559,367.3656 L858.1661,377.7535 L858.4564,388.1415 L858.7878,398.5294 L856.8109,408.9174 L858.7549,419.3053 L857.4007,429.6932 L858.5539,440.0812 L857.125,450.4691 L857.7174,460.8571 L858.8425,471.245 L857.7448,481.633 L857.9588,492.0209 L858.2828,502.4089 L858.3906,512.7968 L857.8071,523.1847 L858.2114,533.5727 L857.0175,543.9606 L858.2075,554.3486 L858.5739,564.7365 L858.4299,575.1245 L858.6639,585.5124 L857.1416,595.9004 L856.9067,606.2883 L856.9494,616.6762 L857.7307,627.0642 L857.5395,637.4521 L858.7589,647.8401 L857.5699,658.228 L857.336,668.616 L857.8125,679.0039 " fill="none" style="stroke:#555555;stroke-width:0.5208333333333334;stroke-dasharray:5.0,5.0;"/><text fill="#2E2E2E" font-family="&quot;Segoe Print&quot;" font-size="12.5" lengthAdjust="spacing" textLength="66.6667" x="10.4167" y="141.0624">Developer</text><polygon fill="none" points="55.2544,72.6325,54.0328,74.3015,52.588,76.7462,50.5217,78.3936,48.3503,79.2946,46.6189,79.3728,44.3937,78.246,42.2941,77.51,40.7004,76.0155,39.8644,74.3045,39.3687,72.9422,38.883,71.1628,38.0947,69.6316,38.7005,68.1365,39.2312,66.4988,41.223,65.2036,42.6242,63.523,44.3586,62.9649,46.4205,62.4843,49.0647,62.7698,50.5129,63.4528,52.1967,63.7624,54.2441,65.86,54.9578,68.0744,55.2679,69.5853,54.9166,72.0751" style="stroke:#333333;stroke-width:0.5208333333333334;"/><path d="M46.875,78.9388 L47.0696,78.9388 L46.4914,84.5638 L47.054,90.1888 L47.2451,95.8138 L46.2144,101.4388 L46.875,107.0638 M33.3333,87.2721 L33.3333,87.2002 L38.75,86.8772 L44.1667,86.917 L49.5833,87.209 L55,86.632 L60.4167,87.2721 M46.875,107.0638 L47.2624,107.3995 L43.7257,109.8066 L41.32,113.1939 L39.0522,116.7007 L35.9816,119.5118 L33.3333,122.6888 M46.875,107.0638 L46.9227,107.1052 L49.561,110.1694 L52.4166,113.4221 L55.1673,116.5838 L58.1181,119.919 L60.4167,122.6888 " fill="none" style="stroke:#333333;stroke-width:0.5208333333333334;"/><text fill="#2E2E2E" font-family="&quot;Segoe Print&quot;" font-size="12.5" lengthAdjust="spacing" textLength="66.6667" x="10.4167" y="694.7734">Developer</text><polygon fill="none" points="55.2544,713.8109,54.0328,715.4799,52.588,717.9245,50.5217,719.572,48.3503,720.473,46.6189,720.5511,44.3937,719.4244,42.2941,718.6883,40.7004,717.1938,39.8644,715.4829,39.3687,714.1206,38.883,712.3412,38.0947,710.81,38.7005,709.3149,39.2312,707.6772,41.223,706.3819,42.6242,704.7014,44.3586,704.1433,46.4205,703.6627,49.0647,703.9482,50.5129,704.6312,52.1967,704.9408,54.2441,707.0384,54.9578,709.2528,55.2679,710.7637,54.9166,713.2535" style="stroke:#333333;stroke-width:0.5208333333333334;"/><path d="M46.875,720.1172 L47.0696,720.1172 L46.4914,725.7422 L47.054,731.3672 L47.2451,736.9922 L46.2144,742.6172 L46.875,748.2422 M33.3333,728.4505 L33.3333,728.3786 L38.75,728.0556 L44.1667,728.0954 L49.5833,728.3874 L55,727.8104 L60.4167,728.4505 M46.875,748.2422 L47.2624,748.5779 L43.7257,750.985 L41.32,754.3723 L39.0522,757.8791 L35.9816,760.6902 L33.3333,763.8672 M46.875,748.2422 L46.9227,748.2836 L49.561,751.3478 L52.4166,754.6004 L55.1673,757.7622 L58.1181,761.0974 L60.4167,763.8672 " fill="none" style="stroke:#333333;stroke-width:0.5208333333333334;"/><polygon fill="none" points="153.6458,108.6263,153.6458,108.8452,163.6161,108.1947,173.5863,108.8276,183.5565,109.0426,193.5268,107.8832,203.497,108.5454,213.4673,108.182,223.4375,108.6263,223.3865,108.5033,224.0177,108.8485,224.5241,108.8927,225.2788,109.5361,225.7108,109.4004,226.3838,109.8467,226.3203,109.8204,226.7664,110.4933,226.8444,111.0138,227.1379,111.6235,227.3498,112.1995,227.6042,112.793,227.6662,112.793,227.6872,119.0365,227.8075,125.2799,227.8372,131.5234,227.84,137.7669,227.6042,144.0104,227.6858,144.0443,227.5088,144.6613,227.3413,145.2822,226.6406,145.6824,226.8455,146.4576,226.3838,146.9567,226.3444,146.8616,225.8655,147.372,225.1395,147.2861,224.6069,147.667,224.1253,148.1709,223.4375,148.1771,223.4375,148.1263,213.4673,148.2868,203.497,148.5298,193.5268,148.6107,183.5565,148.173,173.5863,148.4763,163.6161,147.5808,153.6458,148.1771,153.6836,148.2683,153.1294,148.1089,152.5264,147.8315,151.9595,147.6415,151.2246,147.0458,150.6996,146.9567,150.4903,146.87,150.2561,146.2849,150.1925,145.7704,149.9043,145.1628,149.9418,144.6902,149.4792,144.0104,149.4185,144.0104,149.3601,137.7669,149.5584,131.5234,149.2476,125.2799,149.2989,119.0365,149.4792,112.793,149.6873,112.8792,149.863,112.2616,150.2029,111.7121,150.1082,110.9824,150.5579,110.4784,150.6996,109.8467,150.778,110.0361,151.226,109.4511,151.8653,109.3278,152.4841,109.1549,153.1432,109.0795,153.6458,108.6263" style="stroke:#333333;stroke-width:0.5208333333333334;"/><text fill="#2E2E2E" font-family="&quot;Segoe Print&quot;" font-size="12.5" lengthAdjust="spacing" textLength="53.125" x="161.9792" y="132.7291">Terminal</text><polygon fill="none" points="153.6458,677.9622,153.6458,678.1812,163.6161,677.5307,173.5863,678.1636,183.5565,678.3786,193.5268,677.2191,203.497,677.8813,213.4673,677.518,223.4375,677.9622,223.3865,677.8392,224.0177,678.1845,224.5241,678.2286,225.2788,678.8721,225.7108,678.7364,226.3838,679.1826,226.3203,679.1563,226.7664,679.8293,226.8444,680.3497,227.1379,680.9595,227.3498,681.5354,227.6042,682.1289,227.6662,682.1289,227.6872,688.3724,227.8075,694.6159,227.8372,700.8594,227.84,707.1029,227.6042,713.3464,227.6858,713.3802,227.5088,713.9972,227.3413,714.6182,226.6406,715.0183,226.8455,715.7935,226.3838,716.2926,226.3444,716.1975,225.8655,716.708,225.1395,716.622,224.6069,717.0029,224.1253,717.5068,223.4375,717.513,223.4375,717.4623,213.4673,717.6227,203.497,717.8658,193.5268,717.9466,183.5565,717.509,173.5863,717.8122,163.6161,716.9168,153.6458,717.513,153.6836,717.6042,153.1294,717.4448,152.5264,717.1675,151.9595,716.9774,151.2246,716.3817,150.6996,716.2926,150.4903,716.206,150.2561,715.6208,150.1925,715.1063,149.9043,714.4988,149.9418,714.0262,149.4792,713.3464,149.4185,713.3464,149.3601,707.1029,149.5584,700.8594,149.2476,694.6159,149.2989,688.3724,149.4792,682.1289,149.6873,682.2151,149.863,681.5975,150.2029,681.048,150.1082,680.3184,150.5579,679.8143,150.6996,679.1826,150.778,679.372,151.226,678.787,151.8653,678.6637,152.4841,678.4908,153.1432,678.4154,153.6458,677.9622" style="stroke:#333333;stroke-width:0.5208333333333334;"/><text fill="#2E2E2E" font-family="&quot;Segoe Print&quot;" font-size="12.5" lengthAdjust="spacing" textLength="53.125" x="161.9792" y="702.065">Terminal</text><polygon fill="none" points="330.7292,108.6263,330.7292,108.8452,341.7708,108.1947,352.8125,108.8276,363.8542,109.0426,374.8958,107.8832,385.9375,108.6263,385.9272,108.6014,386.4701,108.7336,387.0651,108.9914,387.6962,109.3367,388.2027,109.3808,388.8838,109.8467,389.0614,109.9203,388.9257,110.3522,389.3085,110.9989,389.7546,111.6719,389.8326,112.1923,390.1042,112.793,390.1279,112.793,390.0931,119.0365,390.1662,125.2799,390.1872,131.5234,390.3075,137.7669,390.1042,144.0104,390.3194,144.0996,390.078,144.6899,389.6977,145.2228,389.5206,145.8398,389.3531,146.4607,388.8838,146.9567,388.7879,146.7253,388.3847,147.4184,387.6659,147.3497,387.1869,147.8602,386.461,147.7742,385.9375,148.1771,385.9375,148.1057,374.8958,148.9496,363.8542,148.1263,352.8125,148.2868,341.7708,148.5298,330.7292,148.1771,330.7845,148.3106,330.1394,147.9318,329.5888,147.7811,328.8853,147.2612,328.4099,147.292,327.7829,146.9567,327.9587,147.0295,327.6814,146.4265,327.4914,145.8596,326.8957,145.1247,326.5974,144.513,326.5625,144.0104,326.3467,144.0104,326.5421,137.7669,326.4943,131.5234,326.7991,125.2799,326.5018,119.0365,326.5625,112.793,326.4525,112.7474,326.8798,112.234,326.8367,111.5259,327.1282,110.9562,327.747,110.5222,327.7829,109.8467,327.8408,109.9864,328.4697,109.8382,328.9186,109.2553,329.5931,109.2169,330.2184,109.0598,330.7292,108.6263" style="stroke:#333333;stroke-width:0.5208333333333334;"/><text fill="#2E2E2E" font-family="&quot;Segoe Print&quot;" font-size="12.5" lengthAdjust="spacing" textLength="38.5417" x="339.0625" y="132.7291">Vitrina</text><polygon fill="none" points="330.7292,677.9622,330.7292,678.1812,341.7708,677.5307,352.8125,678.1636,363.8542,678.3786,374.8958,677.2191,385.9375,677.9622,385.9272,677.9373,386.4701,678.0695,387.0651,678.3274,387.6962,678.6726,388.2027,678.7168,388.8838,679.1826,389.0614,679.2562,388.9257,679.6881,389.3085,680.3349,389.7546,681.0078,389.8326,681.5283,390.1042,682.1289,390.1279,682.1289,390.0931,688.3724,390.1662,694.6159,390.1872,700.8594,390.3075,707.1029,390.1042,713.3464,390.3194,713.4355,390.078,714.0259,389.6977,714.5587,389.5206,715.1757,389.3531,715.7967,388.8838,716.2926,388.7879,716.0613,388.3847,716.7544,387.6659,716.6857,387.1869,717.1961,386.461,717.1101,385.9375,717.513,385.9375,717.4417,374.8958,718.2855,363.8542,717.4623,352.8125,717.6227,341.7708,717.8658,330.7292,717.513,330.7845,717.6465,330.1394,717.2677,329.5888,717.117,328.8853,716.5972,328.4099,716.6279,327.7829,716.2926,327.9587,716.3655,327.6814,715.7624,327.4914,715.1956,326.8957,714.4607,326.5974,713.849,326.5625,713.3464,326.3467,713.3464,326.5421,707.1029,326.4943,700.8594,326.7991,694.6159,326.5018,688.3724,326.5625,682.1289,326.4525,682.0833,326.8798,681.57,326.8367,680.8618,327.1282,680.2922,327.747,679.8581,327.7829,679.1826,327.8408,679.3224,328.4697,679.1742,328.9186,678.5912,329.5931,678.5528,330.2184,678.3957,330.7292,677.9622" style="stroke:#333333;stroke-width:0.5208333333333334;"/><text fill="#2E2E2E" font-family="&quot;Segoe Print&quot;" font-size="12.5" lengthAdjust="spacing" textLength="38.5417" x="339.0625" y="702.065">Vitrina</text><polygon fill="none" points="488.0208,108.6263,488.0208,108.6993,497.1875,108.4824,506.3542,108.6934,515.5208,108.7651,524.6875,108.3786,533.8542,108.6263,533.8438,108.6014,534.3868,108.7336,534.9817,108.9914,535.6129,109.3367,536.1193,109.3808,536.8004,109.8467,536.978,109.9203,536.8423,110.3522,537.2252,110.9989,537.6712,111.6719,537.7492,112.1923,538.0208,112.793,538.0445,112.793,538.0097,119.0365,538.0828,125.2799,538.1039,131.5234,538.2242,137.7669,538.0208,144.0104,538.2361,144.0996,537.9947,144.6899,537.6144,145.2228,537.4373,145.8398,537.2698,146.4607,536.8004,146.9567,536.7046,146.7253,536.3013,147.4184,535.5825,147.3497,535.1036,147.8602,534.3776,147.7742,533.8542,148.1771,533.8542,148.1533,524.6875,148.4346,515.5208,148.1602,506.3542,148.2136,497.1875,148.2947,488.0208,148.1771,488.0761,148.3106,487.4311,147.9318,486.8805,147.7811,486.177,147.2612,485.7016,147.292,485.0746,146.9567,485.2504,147.0295,484.9731,146.4265,484.7831,145.8596,484.1874,145.1247,483.889,144.513,483.8542,144.0104,483.6384,144.0104,483.8337,137.7669,483.7859,131.5234,484.0908,125.2799,483.7935,119.0365,483.8542,112.793,483.7441,112.7474,484.1715,112.234,484.1284,111.5259,484.4199,110.9562,485.0387,110.5222,485.0746,109.8467,485.1324,109.9864,485.7614,109.8382,486.2103,109.2553,486.8847,109.2169,487.51,109.0598,488.0208,108.6263" style="stroke:#333333;stroke-width:0.5208333333333334;"/><text fill="#2E2E2E" font-family="&quot;Segoe Print&quot;" font-size="12.5" lengthAdjust="spacing" textLength="29.1667" x="496.3542" y="132.7291">Host</text><polygon fill="none" points="488.0208,677.9622,488.0208,678.0352,497.1875,677.8184,506.3542,678.0294,515.5208,678.101,524.6875,677.7145,533.8542,677.9622,533.8438,677.9373,534.3868,678.0695,534.9817,678.3274,535.6129,678.6726,536.1193,678.7168,536.8004,679.1826,536.978,679.2562,536.8423,679.6881,537.2252,680.3349,537.6712,681.0078,537.7492,681.5283,538.0208,682.1289,538.0445,682.1289,538.0097,688.3724,538.0828,694.6159,538.1039,700.8594,538.2242,707.1029,538.0208,713.3464,538.2361,713.4355,537.9947,714.0259,537.6144,714.5587,537.4373,715.1757,537.2698,715.7967,536.8004,716.2926,536.7046,716.0613,536.3013,716.7544,535.5825,716.6857,535.1036,717.1961,534.3776,717.1101,533.8542,717.513,533.8542,717.4892,524.6875,717.7705,515.5208,717.4961,506.3542,717.5496,497.1875,717.6306,488.0208,717.513,488.0761,717.6465,487.4311,717.2677,486.8805,717.117,486.177,716.5972,485.7016,716.6279,485.0746,716.2926,485.2504,716.3655,484.9731,715.7624,484.7831,715.1956,484.1874,714.4607,483.889,713.849,483.8542,713.3464,483.6384,713.3464,483.8337,707.1029,483.7859,700.8594,484.0908,694.6159,483.7935,688.3724,483.8542,682.1289,483.7441,682.0833,484.1715,681.57,484.1284,680.8618,484.4199,680.2922,485.0387,679.8581,485.0746,679.1826,485.1324,679.3224,485.7614,679.1742,486.2103,678.5912,486.8847,678.5528,487.51,678.3957,488.0208,677.9622" style="stroke:#333333;stroke-width:0.5208333333333334;"/><text fill="#2E2E2E" font-family="&quot;Segoe Print&quot;" font-size="12.5" lengthAdjust="spacing" textLength="29.1667" x="496.3542" y="702.065">Host</text><text fill="#2E2E2E" font-family="&quot;Segoe Print&quot;" font-size="12.5" lengthAdjust="spacing" textLength="53.125" x="632.2917" y="141.0624">Browser</text><path d="M640.625,95.0846 L640.8196,95.0846 L640.2414,100.0846 L640.804,105.0846 L640.9951,110.0846 L639.9644,115.0846 L640.625,120.0846 M640.625,107.5846 L640.625,107.5127 L644.1667,107.1897 L647.7083,107.2295 L651.25,107.5215 L654.7917,106.9445 L658.3333,107.5846 " fill="none" style="stroke:#333333;stroke-width:0.5208333333333334;"/><polygon fill="none" points="683.4024,110.6251,681.5701,113.1287,679.4029,116.7957,676.3034,119.2669,673.0463,120.6183,670.4492,120.7356,667.1114,119.0455,663.9619,117.9414,661.5714,115.6996,660.3175,113.1332,659.5739,111.0898,658.8454,108.4207,657.6629,106.1238,658.5715,103.8812,659.3677,101.4247,662.3553,99.4818,664.4572,96.9609,667.0588,96.1238,670.1517,95.4029,674.1179,95.8312,676.2902,96.8557,678.816,97.3201,681.887,100.4664,682.9575,103.788,683.4226,106.0544,682.8958,109.789" style="stroke:#333333;stroke-width:0.5208333333333334;"/><text fill="#2E2E2E" font-family="&quot;Segoe Print&quot;" font-size="12.5" lengthAdjust="spacing" textLength="53.125" x="632.2917" y="694.7734">Browser</text><path d="M640.625,707.0964 L640.8196,707.0964 L640.2414,712.0964 L640.804,717.0964 L640.9951,722.0964 L639.9644,727.0964 L640.625,732.0964 M640.625,719.5964 L640.625,719.5244 L644.1667,719.2015 L647.7083,719.2413 L651.25,719.5332 L654.7917,718.9562 L658.3333,719.5964 " fill="none" style="stroke:#333333;stroke-width:0.5208333333333334;"/><polygon fill="none" points="683.4024,722.6368,681.5701,725.1404,679.4029,728.8074,676.3034,731.2786,673.0463,732.63,670.4492,732.7473,667.1114,731.0572,663.9619,729.9531,661.5714,727.7113,660.3175,725.145,659.5739,723.1015,658.8454,720.4324,657.6629,718.1355,658.5715,715.8929,659.3677,713.4364,662.3553,711.4935,664.4572,708.9726,667.0588,708.1355,670.1517,707.4146,674.1179,707.8429,676.2902,708.8674,678.816,709.3318,681.887,712.4782,682.9575,715.7997,683.4226,718.0661,682.8958,721.8008" style="stroke:#333333;stroke-width:0.5208333333333334;"/><text fill="#2E2E2E" font-family="&quot;Segoe Print&quot;" font-size="12.5" lengthAdjust="spacing" textLength="58.3333" x="825.5208" y="141.0624">Reviewer</text><polygon fill="none" points="866.1919,72.6325,864.9703,74.3015,863.5255,76.7462,861.4592,78.3936,859.2878,79.2946,857.5564,79.3728,855.3312,78.246,853.2316,77.51,851.6379,76.0155,850.8019,74.3045,850.3062,72.9422,849.8205,71.1628,849.0322,69.6316,849.638,68.1365,850.1687,66.4988,852.1605,65.2036,853.5617,63.523,855.2961,62.9649,857.358,62.4843,860.0022,62.7698,861.4504,63.4528,863.1342,63.7624,865.1816,65.86,865.8953,68.0744,866.2054,69.5853,865.8541,72.0751" style="stroke:#333333;stroke-width:0.5208333333333334;"/><path d="M857.8125,78.9388 L858.0071,78.9388 L857.4289,84.5638 L857.9915,90.1888 L858.1826,95.8138 L857.1519,101.4388 L857.8125,107.0638 M844.2708,87.2721 L844.2708,87.2002 L849.6875,86.8772 L855.1042,86.917 L860.5208,87.209 L865.9375,86.632 L871.3542,87.2721 M857.8125,107.0638 L858.1999,107.3995 L854.6632,109.8066 L852.2575,113.1939 L849.9897,116.7007 L846.9191,119.5118 L844.2708,122.6888 M857.8125,107.0638 L857.8602,107.1052 L860.4985,110.1694 L863.3541,113.4221 L866.1048,116.5838 L869.0556,119.919 L871.3542,122.6888 " fill="none" style="stroke:#333333;stroke-width:0.5208333333333334;"/><text fill="#2E2E2E" font-family="&quot;Segoe Print&quot;" font-size="12.5" lengthAdjust="spacing" textLength="58.3333" x="825.5208" y="694.7734">Reviewer</text><polygon fill="none" points="866.1919,713.8109,864.9703,715.4799,863.5255,717.9245,861.4592,719.572,859.2878,720.473,857.5564,720.5511,855.3312,719.4244,853.2316,718.6883,851.6379,717.1938,850.8019,715.4829,850.3062,714.1206,849.8205,712.3412,849.0322,710.81,849.638,709.3149,850.1687,707.6772,852.1605,706.3819,853.5617,704.7014,855.2961,704.1433,857.358,703.6627,860.0022,703.9482,861.4504,704.6312,863.1342,704.9408,865.1816,707.0384,865.8953,709.2528,866.2054,710.7637,865.8541,713.2535" style="stroke:#333333;stroke-width:0.5208333333333334;"/><path d="M857.8125,720.1172 L858.0071,720.1172 L857.4289,725.7422 L857.9915,731.3672 L858.1826,736.9922 L857.1519,742.6172 L857.8125,748.2422 M844.2708,728.4505 L844.2708,728.3786 L849.6875,728.0556 L855.1042,728.0954 L860.5208,728.3874 L865.9375,727.8104 L871.3542,728.4505 M857.8125,748.2422 L858.1999,748.5779 L854.6632,750.985 L852.2575,754.3723 L849.9897,757.8791 L846.9191,760.6902 L844.2708,763.8672 M857.8125,748.2422 L857.8602,748.2836 L860.4985,751.3478 L863.3541,754.6004 L866.1048,757.7622 L869.0556,761.0974 L871.3542,763.8672 " fill="none" style="stroke:#333333;stroke-width:0.5208333333333334;"/><polygon fill="#4D4D4D" points="505.7292,269.9544,505.7292,270.0274,507.8125,269.8106,509.8958,270.0215,511.9792,270.0932,514.0625,269.7067,516.1458,269.9544,516.0649,269.9544,515.7016,280.3625,515.7464,290.7706,516.0748,301.1787,515.4257,311.5868,516.7225,321.9949,515.4893,332.403,515.9398,342.8111,516.5958,353.2192,516.0565,363.6273,516.2169,374.0354,516.1126,384.4435,516.3318,394.8516,516.3949,405.2597,516.7559,415.6678,516.8448,426.0759,516.8534,436.484,516.4111,446.8921,516.6287,457.3002,516.1458,467.7083,516.1458,467.9522,514.0625,467.4579,511.9792,467.9439,509.8958,467.6054,507.8125,467.8937,505.7292,467.7083,505.2135,467.7083,505.6578,457.3002,506.5017,446.8921,505.6784,436.484,505.8389,426.0759,506.0819,415.6678,506.1627,405.2597,505.7251,394.8516,506.0283,384.4435,505.1329,374.0354,506.0254,363.6273,506.3002,353.2192,506.1922,342.8111,506.3677,332.403,505.226,321.9949,505.0498,311.5868,505.0819,301.1787,505.6678,290.7706,505.5244,280.3625,505.7292,269.9544" style="stroke:#555555;stroke-width:1.0416666666666667;"/><polygon fill="#4D4D4D" points="656.7708,541.6016,656.7708,541.6745,658.8542,541.4577,660.9375,541.6687,663.0208,541.7403,665.1042,541.3539,667.1875,541.6016,667.1065,541.6016,666.7432,552.3881,666.788,563.1747,667.1165,573.9613,666.4673,584.7479,667.7642,595.5344,666.531,606.321,666.9815,617.1076,667.6374,627.8942,667.0981,638.6808,667.2586,649.4673,667.1875,660.2539,667.1875,660.2428,665.1042,660.3159,663.0208,660.3369,660.9375,660.4573,658.8542,660.4869,656.7708,660.2539,657.4784,660.2539,657.0361,649.4673,657.2537,638.6808,657.5023,627.8942,656.0196,617.1076,657.4776,606.321,656.462,595.5344,657.3269,584.7479,656.2552,573.9613,656.6995,563.1747,657.5433,552.3881,656.7708,541.6016" style="stroke:#555555;stroke-width:1.0416666666666667;"/><polygon fill="#333333" points="176.0417,186.6862,176.0688,186.754,178.0716,187.386,180.2333,188.4152,182.3432,189.315,184.283,189.7895,186.4583,190.8529,186.4483,190.8278,184.32,191.5487,182.2422,192.3959,180.1995,193.3309,178.0358,193.9633,176.0417,195.0195,176.1776,195.1555,176.7203,194.0314,177.6598,193.3043,178.6477,192.6256,179.3539,191.6651,180.2083,190.8529,180.2251,190.8696,179.3672,190.0117,178.5855,189.23,177.767,188.4116,177.0188,187.6633,176.0417,186.6862" style="stroke:#333333;stroke-width:1.0416666666666667;"/><path d="M46.875,190.8529 L46.875,191.1448 L57.2917,190.2774 L67.7083,191.1213 L78.125,191.408 L88.5417,189.862 L98.9583,190.7449 L109.375,190.2605 L119.7917,190.3202 L130.2083,190.7582 L140.625,189.8926 L151.0417,191.6218 L161.4583,189.9775 L171.875,190.5782 L182.2917,190.8529 " fill="none" style="stroke:#333333;stroke-width:3.125;"/><text fill="#2E2E2E" font-family="&quot;Segoe Print&quot;" font-size="12.5" lengthAdjust="spacing" textLength="106.25" x="59.375" y="180.6132">Run Vitrina --host</text><polygon fill="#333333" points="345.8333,226.237,345.8604,226.3047,347.8632,226.9367,350.0249,227.966,352.1349,228.8658,354.0747,229.3403,356.25,230.4036,356.24,230.3786,354.1117,231.0995,352.0339,231.9467,349.9912,232.8817,347.8275,233.5141,345.8333,234.5703,345.9693,234.7062,346.5119,233.5822,347.4514,232.8551,348.4394,232.1764,349.1456,231.2159,350,230.4036,350.0168,230.4204,349.1588,229.5625,348.3772,228.7808,347.5587,227.9624,346.8105,227.2141,345.8333,226.237" style="stroke:#333333;stroke-width:1.0416666666666667;"/><path d="M188.5417,230.4036 L188.5417,230.6956 L198.763,229.8282 L208.9844,230.6721 L219.2057,230.9588 L229.4271,229.4128 L239.6484,230.2957 L249.8698,229.8113 L260.0911,229.871 L270.3125,230.309 L280.5339,229.4434 L290.7552,231.1726 L300.9766,229.5283 L311.1979,230.129 L321.4193,231.0036 L331.6406,230.2845 L341.862,230.4984 L352.0833,230.4036 " fill="none" style="stroke:#333333;stroke-width:3.125;"/><text fill="#2E2E2E" font-family="&quot;Segoe Print&quot;" font-size="12.5" lengthAdjust="spacing" textLength="78.125" x="201.0417" y="220.164">pypr install...</text><polygon fill="#333333" points="493.2292,265.7878,493.2563,265.8555,495.2591,266.4875,497.4208,267.5167,499.5307,268.4166,501.4705,268.8911,503.6458,269.9544,503.6358,269.9294,501.5075,270.6503,499.4297,271.4975,497.387,272.4325,495.2233,273.0649,493.2292,274.1211,493.3651,274.257,493.9078,273.133,494.8473,272.4059,495.8352,271.7271,496.5414,270.7667,497.3958,269.9544,497.4126,269.9712,496.5547,269.1132,495.773,268.3316,494.9545,267.5131,494.2063,266.7649,493.2292,265.7878" style="stroke:#333333;stroke-width:1.0416666666666667;"/><path d="M358.3333,269.9544 L358.3333,270.2463 L368.4152,269.379 L378.497,270.2229 L388.5789,270.5095 L398.6607,268.9636 L408.7426,269.8465 L418.8244,269.3621 L428.9063,269.4218 L438.9881,269.8598 L449.0699,268.9942 L459.1518,270.7234 L469.2336,269.079 L479.3155,269.6798 L489.3973,270.5544 L499.4792,269.9544 " fill="none" style="stroke:#333333;stroke-width:3.125;"/><text fill="#2E2E2E" font-family="&quot;Segoe Print&quot;" font-size="12.5" lengthAdjust="spacing" textLength="116.6667" x="370.8333" y="259.7148">provision services</text><polygon fill="#333333" points="369.7917,305.3385,369.8188,305.4063,367.6549,306.0383,365.6499,307.0675,363.5932,307.9674,361.3663,308.4419,359.375,309.5052,359.365,309.4802,361.4033,310.201,363.4922,311.0482,365.6162,311.9832,367.6192,312.6157,369.7917,313.6719,369.9276,313.8078,368.8036,312.6838,368.0764,311.9567,367.3977,311.2779,366.4373,310.3175,365.625,309.5052,365.6418,309.522,366.4505,308.664,367.3355,307.8824,368.1837,307.0639,369.1021,306.3157,369.7917,305.3385" style="stroke:#333333;stroke-width:1.0416666666666667;"/><path d="M363.5417,309.5052 L363.5417,309.7971 L373.6235,308.9298 L383.7054,309.7737 L393.7872,310.0603 L403.869,308.5144 L413.9509,309.3973 L424.0327,308.9129 L434.1146,308.9726 L444.1964,309.4105 L454.2783,308.545 L464.3601,310.2742 L474.442,308.6298 L484.5238,309.2305 L494.6057,310.1051 L504.6875,309.5052 " fill="none" style="stroke:#333333;stroke-width:3.125;stroke-dasharray:2.0,2.0;"/><text fill="#2E2E2E" font-family="&quot;Segoe Print&quot;" font-size="12.5" lengthAdjust="spacing" textLength="38.5417" x="381.25" y="299.2655">Ready</text><polygon fill="#333333" points="493.2292,344.8893,493.2563,344.9571,495.2591,345.5891,497.4208,346.6183,499.5307,347.5182,501.4705,347.9927,503.6458,349.056,503.6358,349.0309,501.5075,349.7518,499.4297,350.599,497.387,351.534,495.2233,352.1664,493.2292,353.2227,493.3651,353.3586,493.9078,352.2346,494.8473,351.5074,495.8352,350.8287,496.5414,349.8683,497.3958,349.056,497.4126,349.0727,496.5547,348.2148,495.773,347.4332,494.9545,346.6147,494.2063,345.8665,493.2292,344.8893" style="stroke:#333333;stroke-width:1.0416666666666667;"/><path d="M358.3333,349.056 L358.3333,349.3479 L368.4152,348.4805 L378.497,349.3244 L388.5789,349.6111 L398.6607,348.0652 L408.7426,348.9481 L418.8244,348.4636 L428.9063,348.5234 L438.9881,348.9613 L449.0699,348.0958 L459.1518,349.8249 L469.2336,348.1806 L479.3155,348.7813 L489.3973,349.6559 L499.4792,349.056 " fill="none" style="stroke:#333333;stroke-width:3.125;"/><text fill="#2E2E2E" font-family="&quot;Segoe Print&quot;" font-size="12.5" lengthAdjust="spacing" textLength="83.3333" x="370.8333" y="338.8163">Test features</text><polygon fill="#333333" points="369.7917,384.4401,369.8188,384.5079,367.6549,385.1399,365.6499,386.1691,363.5932,387.069,361.3663,387.5434,359.375,388.6068,359.365,388.5817,361.4033,389.3026,363.4922,390.1498,365.6162,391.0848,367.6192,391.7172,369.7917,392.7734,369.9276,392.9094,368.8036,391.7854,368.0764,391.0582,367.3977,390.3795,366.4373,389.419,365.625,388.6068,365.6418,388.6235,366.4505,387.7656,367.3355,386.9839,368.1837,386.1655,369.1021,385.4172,369.7917,384.4401" style="stroke:#333333;stroke-width:1.0416666666666667;"/><path d="M363.5417,388.6068 L363.5417,388.8987 L373.6235,388.0313 L383.7054,388.8752 L393.7872,389.1619 L403.869,387.6159 L413.9509,388.4988 L424.0327,388.0144 L434.1146,388.0741 L444.1964,388.5121 L454.2783,387.6465 L464.3601,389.3757 L474.442,387.7314 L484.5238,388.3321 L494.6057,389.2067 L504.6875,388.6068 " fill="none" style="stroke:#333333;stroke-width:3.125;stroke-dasharray:2.0,2.0;"/><text fill="#2E2E2E" font-family="&quot;Segoe Print&quot;" font-size="12.5" lengthAdjust="spacing" textLength="44.7917" x="381.25" y="378.3671">Results</text><polygon fill="#333333" points="493.2292,423.9909,493.2563,424.0586,495.2591,424.6906,497.4208,425.7199,499.5307,426.6197,501.4705,427.0942,503.6458,428.1576,503.6358,428.1325,501.5075,428.8534,499.4297,429.7006,497.387,430.6356,495.2233,431.268,493.2292,432.3242,493.3651,432.4602,493.9078,431.3361,494.8473,430.609,495.8352,429.9303,496.5414,428.9698,497.3958,428.1576,497.4126,428.1743,496.5547,427.3164,495.773,426.5347,494.9545,425.7163,494.2063,424.968,493.2292,423.9909" style="stroke:#333333;stroke-width:1.0416666666666667;"/><path d="M358.3333,428.1576 L358.3333,428.4495 L368.4152,427.5821 L378.497,428.426 L388.5789,428.7127 L398.6607,427.1667 L408.7426,428.0496 L418.8244,427.5652 L428.9063,427.6249 L438.9881,428.0629 L449.0699,427.1973 L459.1518,428.9265 L469.2336,427.2822 L479.3155,427.8829 L489.3973,428.7575 L499.4792,428.1576 " fill="none" style="stroke:#333333;stroke-width:3.125;"/><text fill="#2E2E2E" font-family="&quot;Segoe Print&quot;" font-size="12.5" lengthAdjust="spacing" textLength="84.375" x="370.8333" y="417.9179">HTML reports</text><polygon fill="#333333" points="200,463.5417,200.0271,463.6094,197.8632,464.2414,195.8583,465.2706,193.8015,466.1705,191.5747,466.645,189.5833,467.7083,189.5733,467.6833,191.6117,468.4042,193.7005,469.2514,195.8245,470.1864,197.8275,470.8188,200,471.875,200.1359,472.0109,199.0119,470.8869,198.2848,470.1598,197.6061,469.4811,196.6456,468.5206,195.8333,467.7083,195.8501,467.7251,196.6588,466.8672,197.5438,466.0855,198.392,465.267,199.3105,464.5188,200,463.5417" style="stroke:#333333;stroke-width:1.0416666666666667;"/><path d="M193.75,467.7083 L193.75,468.0003 L203.9714,467.1329 L214.1927,467.9768 L224.4141,468.2634 L234.6354,466.7175 L244.8568,467.6004 L255.0781,467.116 L265.2995,467.1757 L275.5208,467.6137 L285.7422,466.7481 L295.9635,468.4773 L306.1849,466.8329 L316.4063,467.4337 L326.6276,468.3083 L336.849,467.5892 L347.0703,467.8031 L357.2917,467.7083 " fill="none" style="stroke:#333333;stroke-width:3.125;"/><text fill="#2E2E2E" font-family="&quot;Segoe Print&quot;" font-size="12.5" lengthAdjust="spacing" textLength="134.375" x="211.4583" y="457.4687">View reports at http...</text><polygon fill="#333333" points="678.6458,537.4349,678.6729,537.5027,676.5091,538.1347,674.5041,539.1639,672.4474,540.0637,670.2205,540.5382,668.2292,541.6016,668.2191,541.5765,670.2575,542.2974,672.3464,543.1446,674.4704,544.0796,676.4733,544.712,678.6458,545.7682,678.7818,545.9042,677.6578,544.7801,676.9306,544.053,676.2519,543.3743,675.2914,542.4138,674.4792,541.6016,674.4959,541.6183,675.3047,540.7604,676.1897,539.9787,677.0379,539.1603,677.9563,538.412,678.6458,537.4349" style="stroke:#333333;stroke-width:1.0416666666666667;"/><path d="M672.3958,541.6016 L672.3958,541.8935 L682.6389,541.0261 L692.8819,541.87 L703.125,542.1567 L713.3681,540.6107 L723.6111,541.4936 L733.8542,541.0092 L744.0972,541.0689 L754.3403,541.5069 L764.5833,540.6413 L774.8264,542.3705 L785.0694,540.7262 L795.3125,541.3269 L805.5556,542.2015 L815.7986,541.4824 L826.0417,541.6963 L836.2847,541.5572 L846.5278,541.8495 L856.7708,541.6016 " fill="none" style="stroke:#333333;stroke-width:3.125;"/><text fill="#2E2E2E" font-family="&quot;Segoe Print&quot;" font-size="12.5" lengthAdjust="spacing" textLength="85.4167" x="690.1042" y="531.3619">Open reports</text><polygon fill="#333333" points="522.3958,576.9857,522.4229,577.0534,520.2591,577.6854,518.2541,578.7147,516.1974,579.6145,513.9705,580.089,511.9792,581.1523,511.9691,581.1273,514.0075,581.8482,516.0964,582.6954,518.2204,583.6304,520.2233,584.2628,522.3958,585.319,522.5318,585.4549,521.4078,584.3309,520.6806,583.6038,520.0019,582.9251,519.0414,581.9646,518.2292,581.1523,518.2459,581.1691,519.0547,580.3112,519.9397,579.5295,520.7879,578.7111,521.7063,577.9628,522.3958,576.9857" style="stroke:#333333;stroke-width:1.0416666666666667;"/><path d="M516.1458,581.1523 L516.1458,581.4443 L526.883,580.5769 L537.6202,581.4208 L548.3574,581.7075 L559.0946,580.1615 L569.8317,581.0444 L580.5689,580.56 L591.3061,580.6197 L602.0433,581.0577 L612.7804,580.1921 L623.5176,581.9213 L634.2548,580.277 L644.992,580.8777 L655.7292,581.1523 " fill="none" style="stroke:#333333;stroke-width:3.125;"/><text fill="#2E2E2E" font-family="&quot;Segoe Print&quot;" font-size="12.5" lengthAdjust="spacing" textLength="110.4167" x="533.8542" y="570.9127">Get HTML reports</text><polygon fill="#333333" points="644.2708,616.5365,644.2979,616.6042,646.3007,617.2362,648.4624,618.2654,650.5724,619.1653,652.5122,619.6398,654.6875,620.7031,654.6775,620.6781,652.5492,621.399,650.4714,622.2462,648.4287,623.1812,646.265,623.8136,644.2708,624.8698,644.4068,625.0057,644.9494,623.8817,645.8889,623.1546,646.8769,622.4758,647.5831,621.5154,648.4375,620.7031,648.4543,620.7199,647.5963,619.8619,646.8147,619.0803,645.9962,618.2618,645.248,617.5136,644.2708,616.5365" style="stroke:#333333;stroke-width:1.0416666666666667;"/><path d="M510.9375,620.7031 L510.9375,620.995 L521.6747,620.1277 L532.4119,620.9716 L543.149,621.2582 L553.8862,619.7123 L564.6234,620.5952 L575.3606,620.1108 L586.0978,620.1705 L596.8349,620.6085 L607.5721,619.7429 L618.3093,621.4721 L629.0465,619.8277 L639.7837,620.4284 L650.5208,620.7031 " fill="none" style="stroke:#333333;stroke-width:3.125;"/><text fill="#2E2E2E" font-family="&quot;Segoe Print&quot;" font-size="12.5" lengthAdjust="spacing" textLength="84.375" x="523.4375" y="610.4635">HTML reports</text><polygon fill="#333333" points="845.3125,656.0872,845.3396,656.155,847.3424,656.787,849.5041,657.8162,851.614,658.7161,853.5538,659.1906,855.7292,660.2539,855.7191,660.2289,853.5908,660.9497,851.513,661.7969,849.4704,662.7319,847.3067,663.3644,845.3125,664.4206,845.4484,664.5565,845.9911,663.4325,846.9306,662.7053,847.9186,662.0266,848.6248,661.0662,849.4792,660.2539,849.4959,660.2707,848.638,659.4127,847.8563,658.6311,847.0379,657.8126,846.2896,657.0644,845.3125,656.0872" style="stroke:#333333;stroke-width:1.0416666666666667;"/><path d="M661.9792,660.2539 L661.9792,660.5458 L672.5116,659.6785 L683.044,660.5224 L693.5764,660.809 L704.1088,659.2631 L714.6412,660.146 L725.1736,659.6616 L735.706,659.7213 L746.2384,660.1592 L756.7708,659.2937 L767.3032,661.0229 L777.8356,659.3785 L788.3681,659.9792 L798.9005,660.8538 L809.4329,660.1348 L819.9653,660.3487 L830.4977,660.2095 L841.0301,660.5019 L851.5625,660.2539 " fill="none" style="stroke:#333333;stroke-width:3.125;"/><text fill="#2E2E2E" font-family="&quot;Segoe Print&quot;" font-size="12.5" lengthAdjust="spacing" textLength="155.2083" x="674.4792" y="650.0142">lovely HTML + Javascript</text><!--MD5=[82ce730665994446b30e91d335a4d3e9]
@startuml
!include https://raw.githubusercontent.com/bschwarz/puml-themes/master/themes/sketchy-outline/puml-theme-sketchy-outline.puml
title "Vitrina at-a-glance"

' autonumber

actor Developer

Developer -> Terminal : Run Vitrina - -host
Terminal -> Vitrina : pypr install...
Vitrina -> Host : provision services

activate Host
Host - -> Vitrina : Ready
Vitrina -> Host : Test features
Host - -> Vitrina : Results
Vitrina -> Host : HTML reports
Vitrina -> Terminal : View reports at http...
deactivate

group  Share the Portfolio
boundary Browser
actor Reviewer
    Reviewer -> Browser : Open reports
    activate Browser
    Browser -> Host : Get HTML reports
    Host -> Browser : HTML reports
    Browser -> Reviewer : lovely HTML + Javascript
    deactivate
@enduml

@startuml



skinparam backgroundColor transparent
skinparam useBetaStyle false
skinparam handwritten true
skinparam shadowing false







skinparam defaultFontName       "Segoe Print"
skinparam defaultFontSize       12
skinparam dpi                   100
skinparam shadowing             false
skinparam roundcorner           8
skinparam ParticipantPadding    40
skinparam BoxPadding            40
skinparam Padding               5
skinparam ArrowColor            #555555
skinparam stereotype {
    CBackgroundColor transparent
    CBorderColor #4d4d4d
    ABackgroundColor transparent
    ABorderColor #24963e
    IBackgroundColor transparent
    IBorderColor #c6303e
    EBackgroundColor transparent
    EBorderColor #e6ae06
    NBackgroundColor transparent
    NBorderColor #1592a6
}
skinparam title {
	FontColor	                 #2e2e2e
	BorderColor	                 #4d4d4d
	FontSize	    	         20
	BorderRoundCorner            8
	BorderThickness 	         1
	BackgroundColor              transparent
}

skinparam legend {
	BackgroundColor transparent
	BorderColor #4d4d4d
	FontColor #2e2e2e
}

skinparam swimlane {
	BorderColor #17a2b8
	BorderThickness 2
	TitleBackgroundColor  transparent
	TitleFontColor #2e2e2e
}


skinparam activity {
		FontColor #2e2e2e
	BorderColor #333333
	BackgroundColor transparent
	BarColor #28a745
	StartColor #17a2b8
	EndColor #17a2b8
	DiamondBackgroundColor transparent
  	DiamondBorderColor #4d4d4d
  	DiamondFontColor #2e2e2e
}


skinparam participant {
		FontColor #2e2e2e
	BorderColor #333333
	BackgroundColor transparent
	ParticipantBorderThickness 2
}


skinparam actor {
		FontColor #2e2e2e
	BorderColor #333333
	BackgroundColor transparent
}


skinparam arrow {
	Thickness 3
	Color #333333
	FontColor #2e2e2e
}


skinparam sequence {
	BorderColor #333333
	TitleFontColor #2e2e2e
	BackgroundColor transparent
	StartColor #333333
	EndColor #333333
	BoxBackgroundColor transparent
	BoxBorderColor #555555
	BoxFontColor #555555
	DelayFontColor #555555
	LifeLineBorderColor #555555
	LifeLineBorderThickness 2
	LifeLineBackgroundColor #4d4d4d
	GroupBorderColor #555555
	GroupFontColor #555555
	GroupHeaderFontColor #17a2b8
	GroupBackgroundColor #555555
	GroupHeaderBackgroundColor transparent
	DividerBackgroundColor #555555
    DividerBorderColor #555555
    DividerBorderThickness 2
    DividerFontColor #ffffff
	ReferenceBackgroundColor transparent
	ReferenceBorderColor #555555
	ReferenceFontColor #555555
	ReferenceHeaderFontColor #17a2b8
	ReferenceHeaderBackgroundColor #555555
	StereotypeFontColor #2e2e2e
}


skinparam partition {
	BorderColor #333333
	FontColor #333333
	BackgroundColor transparent
}


skinparam collections {
		FontColor #2e2e2e
	BorderColor #333333
	BackgroundColor transparent
}


skinparam control {
		FontColor #2e2e2e
	BorderColor #333333
	BackgroundColor transparent
}


skinparam entity {
		FontColor #2e2e2e
	BorderColor #333333
	BackgroundColor transparent
}


skinparam boundary {
		FontColor #2e2e2e
	BorderColor #333333
	BackgroundColor transparent
}


skinparam agent {
	BackgroundColor #ffc107
	BorderColor #ffc720
	FontColor #555555
}


skinparam note {
	BorderThickness 1
	BackgroundColor #17a2b8
	BorderColor #1592a6
	FontColor #ffffff
}


skinparam artifact {
	BackgroundColor transparent
	BorderColor #4d4d4d
	FontColor #4d4d4d
}


skinparam component {
		FontColor #2e2e2e
	BorderColor #333333
	BackgroundColor transparent
}


skinparam interface {
	BackgroundColor  transparent
	BorderColor  #dc3545
	FontColor #555555
}


skinparam storage {
	BackgroundColor transparent
  	BorderColor #e6ae06
	FontColor #e6ae06
}


skinparam node {
	BackgroundColor  transparent
	BorderColor #ffffff
	FontColor #ffffff
}


skinparam cloud {
	BackgroundColor transparent
	BorderColor #F2FCFE
	FontColor #2e2e2e
}


skinparam database {
		FontColor #2e2e2e
	BorderColor #333333
	BackgroundColor transparent
}


skinparam class {
		FontColor #2e2e2e
	BorderColor #333333
	BackgroundColor transparent
	HeaderBackgroundColor transparent
	StereotypeFontColor #555555
	BorderThickness 1
	AttributeFontColor #555555
	AttributeFontSize 11
}


skinparam object {
		FontColor #2e2e2e
	BorderColor #333333
	BackgroundColor transparent
	StereotypeFontColor #2e2e2e
	BorderThickness 1
	AttributeFontColor #2e2e2e
	AttributeFontSize 11
}


skinparam usecase {
		FontColor #2e2e2e
	BorderColor #333333
	BackgroundColor transparent
	BorderThickness 2
	StereotypeFontColor #333333
}


skinparam rectangle {
		FontColor #2e2e2e
	BorderColor #333333
	BackgroundColor transparent
	BorderThickness 2
	StereotypeFontColor #333333
}


skinparam package {
	BackgroundColor transparent
  	BorderColor #333333
	FontColor #333333
	BorderThickness 2
}


skinparam folder {
	BackgroundColor transparent
  	BorderColor #ffc107
	FontColor #ffc107
	BorderThickness 2
}


skinparam frame {
	BackgroundColor transparent
  	BorderColor #17a2b8
	FontColor #17a2b8
	BorderThickness 2
}


skinparam state {
		FontColor #2e2e2e
	BorderColor #333333
	BackgroundColor transparent
	StartColor #17a2b8
	EndColor #17a2b8
	AttributeFontColor #ffffff
	AttributeFontSize 11
}


skinparam queue {
		FontColor #2e2e2e
	BorderColor #333333
	BackgroundColor transparent
}


skinparam card {
	BackgroundColor transparent
	BorderColor #1592a6
	FontColor #1592a6
}


skinparam file {
	BackgroundColor transparent
	BorderColor #ffffff
	FontColor #ffffff
}


skinparam stack {
		FontColor #2e2e2e
	BorderColor #333333
	BackgroundColor transparent
}
title "Vitrina at-a-glance"


actor Developer

Developer -> Terminal : Run Vitrina - -host
Terminal -> Vitrina : pypr install...
Vitrina -> Host : provision services

activate Host
Host - -> Vitrina : Ready
Vitrina -> Host : Test features
Host - -> Vitrina : Results
Vitrina -> Host : HTML reports
Vitrina -> Terminal : View reports at http...
deactivate

group  Share the Portfolio
boundary Browser
actor Reviewer
    Reviewer -> Browser : Open reports
    activate Browser
    Browser -> Host : Get HTML reports
    Host -> Browser : HTML reports
    Browser -> Reviewer : lovely HTML + Javascript
    deactivate
@enduml

PlantUML version 1.2022.10beta1(Unknown compile time)
(GPL source distribution)
Java Runtime: Java(TM) SE Runtime Environment
JVM: Java HotSpot(TM) 64-Bit Server VM
Default Encoding: UTF-8
Language: en
Country: US
--></g></svg>